<svg width="25" height="26" viewBox="0 0 25 26" fill="none" xmlns="http://www.w3.org/2000/svg">
<path fill-rule="evenodd" clip-rule="evenodd" d="M14.5028 16.8399C15.9075 16.8399 17.0508 17.975 17.0508 19.3704V22.959C17.0508 23.2589 17.2912 23.4992 17.5992 23.5062H19.8228C21.5752 23.5062 22.9997 22.0992 22.9997 20.3702V10.1922C22.9915 9.59721 22.708 9.03721 22.2215 8.66504L14.5297 2.53071C13.4972 1.71287 12.0528 1.71287 11.0168 2.53304L3.37751 8.66271C2.87234 9.04654 2.58884 9.60654 2.58301 10.212V20.3702C2.58301 22.0992 4.00751 23.5062 5.75984 23.5062H8.00451C8.32067 23.5062 8.57734 23.2554 8.57734 22.9474C8.57734 22.8797 8.58551 22.812 8.59951 22.7479V19.3704C8.59951 17.9832 9.73584 16.8492 11.13 16.8399H14.5028ZM19.8228 25.2562H17.5782C16.2925 25.2259 15.3008 24.2167 15.3008 22.959V19.3704C15.3008 18.9399 14.9427 18.5899 14.5028 18.5899H11.1358C10.7053 18.5922 10.3495 18.9434 10.3495 19.3704V22.9474C10.3495 23.0349 10.3378 23.1189 10.3133 23.1982C10.1873 24.3532 9.20034 25.2562 8.00451 25.2562H5.75984C3.04267 25.2562 0.833008 23.064 0.833008 20.3702V10.2039C0.844674 9.04421 1.37901 7.98254 2.30184 7.28371L9.92601 1.16454C11.6048 -0.16546 13.944 -0.16546 15.6193 1.16221L23.2983 7.28721C24.2002 7.97437 24.7345 9.03371 24.7497 10.1794V20.3702C24.7497 23.064 22.54 25.2562 19.8228 25.2562Z" fill="#19191B"/>
</svg>
