<svg width="134" height="40" viewBox="0 0 134 40" fill="none" xmlns="http://www.w3.org/2000/svg">
<path d="M121.302 14.0401C114.302 14.0401 108.608 19.808 108.608 26.8985C108.608 27.6906 108.683 28.4647 108.819 29.2178C107.071 29.2181 104.901 29.2181 102.458 29.2185L103.962 19.303C104.236 17.487 103.004 15.7899 101.212 15.5126C99.4223 15.2427 97.7434 16.483 97.4696 18.2991L95.8134 29.2195C94.8695 29.2195 93.9102 29.2198 92.9382 29.2198L94.2264 20.7781C94.4999 18.9621 93.2683 17.265 91.4755 16.9876C89.685 16.7178 88.0074 17.9581 87.7335 19.7742L86.2919 29.2208C85.3465 29.2208 84.403 29.2211 83.465 29.2211L84.369 23.2198C84.6425 21.4037 83.4106 19.7067 81.6181 19.4293C79.8275 19.1594 78.1499 20.3998 77.8761 22.2158L76.8206 29.2221C74.7789 29.2224 72.8353 29.2227 71.0473 29.2231L71.9516 23.2198C72.2251 21.4037 70.9932 19.7067 69.2007 19.4293C67.4102 19.1594 65.7326 20.3998 65.4588 22.2158L64.4039 29.2188H54.8427C55.9279 27.3932 56.5536 25.2572 56.5536 22.9755C56.5536 16.2817 51.1777 10.8362 44.5696 10.8362C37.9616 10.8362 32.5857 16.2817 32.5857 22.9755C32.5857 25.2575 33.2114 27.3935 34.2966 29.2188H25.7258C25.8624 28.4372 25.9342 27.6299 25.9349 26.7968C25.9352 26.0581 25.9349 25.3198 25.9346 24.5811C25.9346 24.5781 25.9349 24.5755 25.9349 24.5729L25.998 3.35418C25.998 1.53844 24.5447 0.065979 22.7519 0.065979C20.9591 0.065979 19.5058 1.53844 19.5058 3.35418L19.5065 5.78533C19.5065 5.80435 19.5065 5.82303 19.5065 5.84205L19.5113 24.6545C19.5094 25.3647 19.5071 26.0804 19.5045 26.809C19.4886 31.1539 14.998 34.166 10.9589 33.0086C8.03423 32.1703 6.11 29.344 6.38156 26.285C6.66089 23.1394 9.10267 20.7785 12.3485 20.5158C14.632 20.3309 15.9846 18.967 15.8415 16.9932C15.7014 15.0608 14.1031 13.8709 11.8503 14.0221C6.18898 14.4017 1.53166 18.4955 0.331489 24.0335C-0.899758 29.7162 1.57698 35.4365 6.5926 38.1929C11.569 40.9277 18.2665 40.0149 22.2535 35.9421H112.295C114.596 38.2942 117.782 39.7575 121.302 39.7575C128.301 39.7575 133.995 33.9896 133.995 26.8991C133.995 19.8086 128.301 14.0401 121.302 14.0401ZM44.569 17.1162C47.7581 17.1162 50.3527 19.744 50.3527 22.9749C50.3527 26.2057 47.7581 28.8335 44.569 28.8335C41.3799 28.8335 38.7853 26.2057 38.7853 22.9749C38.7856 19.744 41.3802 17.1162 44.569 17.1162ZM121.302 33.104C117.924 33.104 115.176 30.3204 115.176 26.8985C115.176 23.4765 117.924 20.6929 121.302 20.6929C124.68 20.6929 127.428 23.4765 127.428 26.8985C127.428 30.3204 124.68 33.104 121.302 33.104Z" fill="white"/>
</svg>
